<svg width="48" height="46" viewBox="0 0 48 46" fill="none" xmlns="http://www.w3.org/2000/svg">
<g filter="url(#filter0_d)">
<path d="M11.4279 27.1759C11.1597 27.1759 10.9426 27.393 10.9426 27.6611C10.9426 27.9293 11.1597 28.1464 11.4279 28.1464H36.3939C36.6621 28.1464 36.8792 27.9293 36.8792 27.6611C36.8792 27.393 36.6621 27.1759 36.3939 27.1759H33.6857V12.8525H36.3939C36.6621 12.8525 36.8792 12.6354 36.8792 12.3673C36.8792 12.0991 36.6621 11.882 36.3939 11.882H14.2082C14.1648 11.8693 14.12 11.8603 14.0726 11.8603C14.0252 11.8603 13.9801 11.8693 13.937 11.882H11.4279C11.1597 11.882 10.9426 12.0991 10.9426 12.3673C10.9426 12.6354 11.1597 12.8525 11.4279 12.8525H13.5893V27.1759H11.4279ZM21.1298 27.1759V12.8525H26.492V27.1759H21.1298ZM32.7152 27.1759H27.4625V12.8525H32.7152V27.1759ZM14.5559 12.8525H20.1592V27.1759H14.5559V12.8525Z" fill="white"/>
<path d="M39.3365 31.1281H8.48526C8.21708 31.1281 8 31.3452 8 31.6134C8 31.8816 8.21708 32.0986 8.48526 32.0986H39.3365C39.6047 32.0986 39.8218 31.8816 39.8218 31.6134C39.8218 31.3452 39.6047 31.1281 39.3365 31.1281Z" fill="white"/>
<path d="M39.7553 11.878L24.3295 3.06383C24.1809 2.979 23.9979 2.97867 23.8493 3.06316L8.3223 11.8773C8.08918 12.0096 8.0077 12.3058 8.13995 12.5389C8.22945 12.6966 8.39343 12.7847 8.56242 12.7847C8.64358 12.7847 8.72573 12.7644 8.80155 12.7216L24.0881 4.0437L39.2741 12.7206C39.5059 12.8529 39.8024 12.773 39.936 12.5399C40.0689 12.3075 39.9881 12.0113 39.7553 11.878Z" fill="white"/>
</g>
<defs>
<filter id="filter0_d" x="0" y="0" width="48" height="45.0986" filterUnits="userSpaceOnUse" color-interpolation-filters="sRGB">
<feFlood flood-opacity="0" result="BackgroundImageFix"/>
<feColorMatrix in="SourceAlpha" type="matrix" values="0 0 0 0 0 0 0 0 0 0 0 0 0 0 0 0 0 0 127 0"/>
<feOffset dy="5"/>
<feGaussianBlur stdDeviation="4"/>
<feColorMatrix type="matrix" values="0 0 0 0 1 0 0 0 0 1 0 0 0 0 1 0 0 0 0.35 0"/>
<feBlend mode="normal" in2="BackgroundImageFix" result="effect1_dropShadow"/>
<feBlend mode="normal" in="SourceGraphic" in2="effect1_dropShadow" result="shape"/>
</filter>
</defs>
</svg>
