<svg width="41" height="46" viewBox="0 0 41 46" fill="none" xmlns="http://www.w3.org/2000/svg">
<g filter="url(#filter0_d)">
<path d="M30.2628 8.17986L30.6642 6.66906H32.4161C32.7445 6.66906 33 6.41727 33 6.09352V3.57554C33 3.2518 32.7445 3 32.4161 3H8.58394C8.25547 3 8 3.2518 8 3.57554V6.09352C8 6.41727 8.25547 6.66906 8.58394 6.66906H10.3358L10.7372 8.17986C11.7591 12.3525 14.7883 15.6619 18.8759 17.1367V18.5036C14.8248 19.9784 11.7956 23.2878 10.7372 27.4604L10.2263 29.3309H8.58394C8.25547 29.3309 8 29.5827 8 29.9065V32.4245C8 32.7482 8.25547 33 8.58394 33H32.4161C32.7445 33 33 32.7482 33 32.4245V29.9065C33 29.5827 32.7445 29.3309 32.4161 29.3309H30.7737L30.2993 27.4245C29.2044 23.2878 26.1752 19.9784 22.1241 18.5036V17.1367C26.1752 15.6619 29.2044 12.3525 30.2628 8.17986ZM9.16788 4.15108H31.7956V5.48201H9.16788V4.15108V4.15108ZM31.8321 31.8489H9.20438V30.518H31.8321V31.8489ZM21.3942 19.4029C25.2993 20.6619 28.219 23.7914 29.2044 27.7122L29.6058 29.3309H11.3577L11.7591 27.7122C12.781 23.7914 15.7007 20.6619 19.5693 19.4029C19.7883 19.3309 19.9343 19.1151 19.9343 18.8993V16.777C19.9343 16.5612 19.7883 16.3453 19.5693 16.2734C15.7007 14.9424 12.781 11.8489 11.7956 7.92806L11.4672 6.66906H29.5328L29.2044 7.92806C28.219 11.8489 25.2993 14.9424 21.3942 16.2374C21.1752 16.3094 21.0292 16.5252 21.0292 16.741V18.8633C21.0292 19.1151 21.1752 19.3309 21.3942 19.4029Z" fill="white"/>
</g>
<defs>
<filter id="filter0_d" x="0" y="0" width="41" height="46" filterUnits="userSpaceOnUse" color-interpolation-filters="sRGB">
<feFlood flood-opacity="0" result="BackgroundImageFix"/>
<feColorMatrix in="SourceAlpha" type="matrix" values="0 0 0 0 0 0 0 0 0 0 0 0 0 0 0 0 0 0 127 0"/>
<feOffset dy="5"/>
<feGaussianBlur stdDeviation="4"/>
<feColorMatrix type="matrix" values="0 0 0 0 1 0 0 0 0 1 0 0 0 0 1 0 0 0 0.35 0"/>
<feBlend mode="normal" in2="BackgroundImageFix" result="effect1_dropShadow"/>
<feBlend mode="normal" in="SourceGraphic" in2="effect1_dropShadow" result="shape"/>
</filter>
</defs>
</svg>
