<svg width="32" height="12" viewBox="0 0 32 12" fill="none" xmlns="http://www.w3.org/2000/svg">
<path d="M3.76219 2.66667C3.43578 2.66667 3.15016 2.78667 2.95976 3C2.76935 3.2 2.68775 3.49333 2.72855 3.81333L3.40857 7.8C3.51738 8.66667 4.30621 9.33333 5.12224 9.33333H9.2024C10.0728 9.33333 11.0521 8.58667 11.2425 7.76L12.6841 3.50667C12.7385 3.33333 12.6977 3.08 12.6025 2.92C12.4529 2.76 12.2217 2.66667 11.9225 2.66667H3.76219ZM9.2024 12H5.12224C2.91896 12 0.98768 10.32 0.715669 8.18667L0.0356427 4.2C-0.113963 3.06667 0.21245 2 0.919677 1.22667C1.6269 0.453333 2.66054 0 3.76219 0H11.9225C13.0514 0 14.0714 0.466667 14.7242 1.28C14.8738 1.48 15.0098 1.69333 15.1186 1.93333C15.7035 1.81333 16.3019 1.81333 16.8731 1.93333C16.9819 1.69333 17.1179 1.48 17.2811 1.28C17.9203 0.466667 18.9404 0 20.0828 0H28.2431C29.3448 0 30.3784 0.453333 31.0857 1.22667C31.7793 2 32.1057 3.06667 31.9697 4.14667L31.2761 8.24C31.0177 10.32 29.0728 12 26.8831 12H22.8029C20.6812 12 18.614 10.4133 18.0971 8.4L16.8731 4.78667C16.3563 4.41333 15.6355 4.41333 15.1186 4.78667L13.8674 8.49333C13.3778 10.4267 11.3241 12 9.2024 12ZM20.0828 2.66667C19.7836 2.66667 19.5524 2.76 19.4028 2.92C19.294 3.08 19.2668 3.33333 19.3348 3.6L20.7084 7.66667C20.9533 8.58667 21.9325 9.33333 22.8029 9.33333H26.8831C27.6855 9.33333 28.488 8.66667 28.5832 7.85333L29.2768 3.76C29.3176 3.49333 29.236 3.2 29.0456 3C28.8552 2.78667 28.5696 2.66667 28.2431 2.66667H20.0828Z" fill="white"/>
</svg>
