<svg width="41" height="47" viewBox="0 0 41 47" fill="none" xmlns="http://www.w3.org/2000/svg">
<g filter="url(#filter0_d)">
<path d="M32.1838 10.0255C32.6597 7.63482 32.8712 4.54748 31.1743 3.4172C29.4778 2.28564 26.7097 3.66909 24.6862 5.02881C22.5189 6.48532 20.2376 8.60551 19.2611 10.0707L18.5119 11.1952C17.4011 11.1638 13.662 11.1035 12.3074 11.656C10.8291 12.2604 8.13558 15.4461 8.00611 16.744C7.95933 17.21 8.19198 17.4391 8.33395 17.5333C8.61115 17.7185 9.38699 17.7855 10.3654 17.7855C11.5421 17.7855 13.0085 17.6884 14.2558 17.5833L13.928 18.0752C13.9264 18.0774 13.9244 18.0794 13.9228 18.0816C13.9212 18.0839 13.9206 18.0867 13.919 18.089L11.8558 21.1859C10.4718 23.2629 10.4762 25.9756 11.8312 28.0455L10.9438 29.377C10.5932 29.9032 10.4775 30.5387 10.6182 31.1671C10.7573 31.7875 11.1306 32.3265 11.669 32.6848C12.0962 32.9697 12.5785 33.1062 13.0512 33.1062C13.8164 33.1062 14.5573 32.7483 15.0018 32.0817L15.8873 30.7527C16.2661 30.8239 16.6468 30.8595 17.0249 30.8595C19.074 30.8595 21.0439 29.8413 22.2139 28.0865L24.7773 24.2393C25.4791 26.4214 26.4924 29.2793 27.1029 29.6853C27.1868 29.741 27.3256 29.808 27.5102 29.808C27.639 29.808 27.7899 29.775 27.9598 29.6834C29.1074 29.0629 31.0096 25.3504 30.9975 23.7541C30.9872 22.2912 29.4897 18.8623 29.0333 17.8512L29.6182 16.9735C30.595 15.5096 31.674 12.5876 32.1838 10.0255ZM20.061 10.6039C20.8458 9.42621 22.8708 7.40729 25.2224 5.82677C27.7015 4.161 29.6759 3.57391 30.6411 4.2174C31.6054 4.85961 31.8239 6.90801 31.2407 9.83801C30.6872 12.6177 29.6034 15.2635 28.8183 16.4405L23.7479 24.0509L17.7456 20.0521C17.7434 20.0505 17.7418 20.0486 17.7392 20.047C17.737 20.0454 17.7344 20.0448 17.7319 20.0432L14.9897 18.2162L19.1413 11.9845C19.1538 11.9685 19.1647 11.9515 19.1752 11.9338L20.061 10.6039ZM8.96879 16.7645C9.12101 15.9476 11.3886 13.0705 12.6708 12.5462C13.5931 12.1703 16.2465 12.1226 17.8796 12.1444L14.9393 16.5578C12.4657 16.7847 9.65009 16.9132 8.96879 16.7645ZM12.6557 21.7195L14.457 19.0158L16.806 20.5806L12.4205 27.1616C11.494 25.4654 11.5636 23.3584 12.6557 21.7195ZM14.2023 31.5488C13.7773 32.1855 12.88 32.3371 12.2023 31.8849C11.8703 31.6645 11.6411 31.3347 11.5562 30.9569C11.4735 30.5877 11.5402 30.216 11.7437 29.9102L12.8079 28.3134C12.815 28.3031 12.8224 28.2932 12.8284 28.2826L17.6059 21.1135L20.0639 22.7511L14.2023 31.5488ZM21.4146 27.5532C20.3209 29.1934 18.401 30.0692 16.4785 29.866L20.8641 23.284L23.2153 24.8504L21.4146 27.5532ZM30.0364 23.7615C30.047 25.1456 28.2716 28.3371 27.5736 28.8011C27.1557 28.1935 26.1988 25.5664 25.4611 23.2132L28.4011 18.8004C29.0506 20.2986 30.029 22.7655 30.0364 23.7615Z" fill="white"/>
<path d="M22.6641 15.8627C23.3044 16.2899 24.0296 16.4943 24.7474 16.4943C25.9662 16.4943 27.1641 15.905 27.8905 14.8164L27.8909 14.8161C29.0413 13.0862 28.5709 10.7417 26.8423 9.58964C26.0043 9.03139 24.9984 8.83335 24.0126 9.03107C23.0253 9.2288 22.1748 9.7989 21.6175 10.6366C21.0589 11.4743 20.8602 12.4793 21.0579 13.4663C21.2553 14.453 21.8261 15.3041 22.6641 15.8627ZM22.4177 11.1692C22.8327 10.5456 23.4659 10.121 24.201 9.97356C24.3869 9.93638 24.5734 9.91812 24.7583 9.91812C25.3066 9.91812 25.8428 10.079 26.3091 10.3898C27.597 11.248 27.9473 12.9942 27.0904 14.2832C26.2302 15.5721 24.4837 15.9207 23.1974 15.0632C22.5728 14.6469 22.1475 14.013 22.0004 13.2779C21.853 12.5421 22.0011 11.7938 22.4177 11.1692Z" fill="white"/>
</g>
<defs>
<filter id="filter0_d" x="0" y="0" width="40.5228" height="46.1062" filterUnits="userSpaceOnUse" color-interpolation-filters="sRGB">
<feFlood flood-opacity="0" result="BackgroundImageFix"/>
<feColorMatrix in="SourceAlpha" type="matrix" values="0 0 0 0 0 0 0 0 0 0 0 0 0 0 0 0 0 0 127 0"/>
<feOffset dy="5"/>
<feGaussianBlur stdDeviation="4"/>
<feColorMatrix type="matrix" values="0 0 0 0 1 0 0 0 0 1 0 0 0 0 1 0 0 0 0.35 0"/>
<feBlend mode="normal" in2="BackgroundImageFix" result="effect1_dropShadow"/>
<feBlend mode="normal" in="SourceGraphic" in2="effect1_dropShadow" result="shape"/>
</filter>
</defs>
</svg>
