<svg width="32" height="12" viewBox="0 0 32 12" fill="none" xmlns="http://www.w3.org/2000/svg">
<path d="M2.23256 3.87657L2.2339 3.88702L2.23567 3.89741L2.91396 7.87394C3.05984 8.98654 4.05945 9.83333 5.12224 9.83333H9.2024C9.7725 9.83333 10.3392 9.59348 10.7821 9.25314C11.2169 8.91902 11.5897 8.44374 11.7235 7.89854L13.1577 3.66717L13.1578 3.66721L13.1612 3.65639C13.2173 3.47777 13.2168 3.29119 13.1942 3.13623C13.1713 2.97915 13.1194 2.81079 13.0322 2.66433L13.0046 2.61794L12.9677 2.57851C12.702 2.2943 12.325 2.16667 11.9225 2.16667H3.76219C3.31573 2.16667 2.88949 2.33157 2.59203 2.66115C2.28203 2.99081 2.17711 3.4417 2.23256 3.87657ZM1.21165 8.12343L1.21032 8.11298L1.20855 8.10259L0.530159 4.12551C0.401477 3.13199 0.689589 2.21915 1.28865 1.5641C1.89821 0.897559 2.79648 0.5 3.76219 0.5H11.9225C12.9105 0.5 13.7792 0.905756 14.329 1.58643C14.4613 1.76402 14.5744 1.94392 14.6632 2.13978L14.8281 2.50337L15.2191 2.42313C15.7384 2.31657 16.2677 2.31706 16.7703 2.42265L17.1629 2.50512L17.3285 2.13978C17.418 1.94243 17.5302 1.76558 17.6685 1.59612L17.6686 1.59617L17.6742 1.58896C18.2081 0.909695 19.0758 0.5 20.0828 0.5H28.2431C29.208 0.5 30.1054 0.89682 30.715 1.56224C31.3047 2.22075 31.5901 3.1362 31.4749 4.07398L30.7831 8.15646L30.7812 8.16738L30.7799 8.17836C30.5541 9.99547 28.8333 11.5 26.8831 11.5H22.8029C20.9042 11.5 19.0402 10.0628 18.5814 8.27568L18.5768 8.25743L18.5707 8.23958L17.3467 4.62624L17.2954 4.47491L17.1659 4.38135C16.4743 3.88177 15.5174 3.88177 14.8258 4.38135L14.6961 4.47509L14.6449 4.62675L13.3936 8.33342L13.3874 8.35179L13.3827 8.37058C12.9521 10.0707 11.1071 11.5 9.2024 11.5H5.12224C3.16364 11.5 1.45095 10.0002 1.21165 8.12343ZM19.0376 2.57851L19.0111 2.6068L18.9893 2.63884C18.7727 2.9574 18.7609 3.37316 18.8503 3.72355L18.855 3.74199L18.8611 3.76001L20.2298 7.81205C20.3879 8.38857 20.7639 8.88617 21.2123 9.23827C21.6633 9.59238 22.2314 9.83333 22.8029 9.83333H26.8831C27.9184 9.83333 28.9445 8.99975 29.0781 7.9252L29.7698 3.84354L29.7698 3.84355L29.771 3.83562C29.8331 3.43023 29.7143 2.98126 29.4133 2.66114C29.1158 2.33156 28.6896 2.16667 28.2431 2.16667H20.0828C19.6803 2.16667 19.3033 2.2943 19.0376 2.57851Z" fill="white" stroke="black"/>
</svg>
